# xmcd
#
# Track frame offsets:
#	150
#	15540
#	32244
#	53436
#	73787
#	95537
#	117113
#	136683
#	158264
#	180179
#	195196
#	215400
#
# Disc length: 3121 seconds
#
# Revision: 2
# Processed by: cddbd v1.5.2PL0 Copyright (c) Steve Scherf et al.
# Submitted via: EasyCDDAExtractor 12.0.1.1
#
DISCID=880c2f0c
DTITLE=Bon Jovi - 1.000.000 Bon Jovi Fans Can't Be Wrong [CD2)
DYEAR=2004
DGENRE=Country
TTITLE0=Garageland
TTITLE1=Starting All Over Again
TTITLE2=Maybe Someday
TTITLE3=Last Chance Train
TTITLE4=The Fire Inside
TTITLE5=Every Beat Of My Heart
TTITLE6=Rich Man Living In A Poor Man's
TTITLE7=The One That Got Away
TTITLE8=You Can Sleep While I Dream
TTITLE9=Outlaws Of Love
TTITLE10=Good Guy's Don't
TTITLE11=We Rule The Night
EXTD=YEAR: 2004
EXTT0=
EXTT1=
EXTT2=
EXTT3=
EXTT4=
EXTT5=
EXTT6=
EXTT7=
EXTT8=
EXTT9=
EXTT10=
EXTT11=
PLAYORDER=
